HIERARCHY
ROOT SpineBase
{
  OFFSET 0.000000 0.000000 0.000000
  CHANNELS 6 Xposition Yposition Zposition Zrotation Xrotation Yrotation
  JOINT SpineMid
  {
    OFFSET 0.000000 31.960185 0.000000
    CHANNELS 3 Zrotation Xrotation Yrotation
    JOINT SpineShoulder
    {
      OFFSET 0.090038 23.732976 -0.793515
      CHANNELS 3 Zrotation Xrotation Yrotation
      JOINT Neck
      {
        OFFSET 0.071063 7.849821 -0.599502
        CHANNELS 3 Zrotation Xrotation Yrotation
        JOINT Head
        {
          OFFSET 4.752801 12.326947 4.155684
          CHANNELS 3 Zrotation Xrotation Yrotation
          End Site
          {
            OFFSET 0 0 0
          }
        }
      }
      JOINT ShoulderLeft
      {
        OFFSET -10.049851 -2.960584 -11.750797
        CHANNELS 3 Zrotation Xrotation Yrotation
        JOINT ElbowLeft
        {
          OFFSET -5.591031 -22.131274 -8.145285
          CHANNELS 3 Zrotation Xrotation Yrotation
          JOINT WristLeft
          {
            OFFSET 19.785280 -12.764251 -5.885637
            CHANNELS 3 Zrotation Xrotation Yrotation
            JOINT HandLeft
            {
              OFFSET 6.142429 0.146599 -2.844436
              CHANNELS 3 Zrotation Xrotation Yrotation
              JOINT HandTipLeft
              {
                OFFSET 7.232061 -2.574992 -1.253619
                CHANNELS 3 Zrotation Xrotation Yrotation
                End Site
                {
                  OFFSET 0 0 0
                }
              }
              JOINT ThumbLeft
              {
                OFFSET 2.166125 0.973914 -0.278827
                CHANNELS 3 Zrotation Xrotation Yrotation
                End Site
                {
                  OFFSET 0 0 0
                }
              }
            }
          }
        }
      }
      JOINT ShoulderRight
      {
        OFFSET 11.420071 -3.622416 12.657601
        CHANNELS 3 Zrotation Xrotation Yrotation
        JOINT ElbowRight
        {
          OFFSET 2.619063 -24.489859 1.366290
          CHANNELS 3 Zrotation Xrotation Yrotation
          JOINT WristRight
          {
            OFFSET 6.915512 -12.968289 -17.209706
            CHANNELS 3 Zrotation Xrotation Yrotation
            JOINT HandRight
            {
              OFFSET 3.515452 -0.940035 -3.661490
              CHANNELS 3 Zrotation Xrotation Yrotation
              JOINT HandTipRight
              {
                OFFSET 2.382238 -1.175900 -5.466367
                CHANNELS 3 Zrotation Xrotation Yrotation
                End Site
                {
                  OFFSET 0 0 0
                }
              }
              JOINT ThumbRight
              {
                OFFSET 4.405592 1.098295 0.525245
                CHANNELS 3 Zrotation Xrotation Yrotation
                End Site
                {
                  OFFSET 0 0 0
                }
              }
            }
          }
        }
      }
    }
  }
  JOINT HipLeft
  {
    OFFSET -4.049449 1.732726 -8.342544
    CHANNELS 3 Zrotation Xrotation Yrotation
    JOINT KneeLeft
    {
      OFFSET -7.772800 -34.618410 -4.382033
      CHANNELS 3 Zrotation Xrotation Yrotation
      JOINT AnkleLeft
      {
        OFFSET -6.729759 -37.484675 5.513585
        CHANNELS 3 Zrotation Xrotation Yrotation
        JOINT FootLeft
        {
          OFFSET 2.124704 -7.781886 -6.091109
          CHANNELS 3 Zrotation Xrotation Yrotation
          End Site
          {
            OFFSET 0 0 0
          }
        }
      }
    }
  }
  JOINT HipRight
  {
    OFFSET 4.995608 -0.014808 1.094717
    CHANNELS 3 Zrotation Xrotation Yrotation
    JOINT KneeRight
    {
      OFFSET 0.231047 -36.367532 3.052668
      CHANNELS 3 Zrotation Xrotation Yrotation
      JOINT AnkleRight
      {
        OFFSET -5.954795 -37.824828 18.016638
        CHANNELS 3 Zrotation Xrotation Yrotation
        JOINT FootRight
        {
          OFFSET 4.167711 -7.449761 -3.642271
          CHANNELS 3 Zrotation Xrotation Yrotation
          End Site
          {
            OFFSET 0 0 0
          }
        }
      }
    }
  }
}
MOTION
Frames: 6
Frame Time: 0.033333
-45.856491 83.479432 348.279966 -0.000000 0.000000 -46.215659 -0.000000 0.000000 46.215659 -0.000000 0.000000 0.000000 -0.000000 0.000000 0.000000 0.000000 0.000000 0.000000 -0.000000 0.000000 0.000000 -0.000000 0.000000 0.000000 -0.000000 0.000000 0.000000 -0.000000 0.000000 0.000000 0.000000 0.000000 0.000000 0.000000 0.000000 0.000000 -0.000000 0.000000 0.000000 -0.000000 0.000000 0.000000 -0.000000 0.000000 0.000000 -0.000000 0.000000 0.000000 0.000000 0.000000 0.000000 0.000000 0.000000 0.000000 -0.000000 0.000000 46.215659 -0.000000 0.000000 0.000000 -0.000000 0.000000 0.000000 0.000000 0.000000 0.000000 -0.000000 0.000000 46.215659 -0.000000 0.000000 0.000000 -0.000000 0.000000 0.000000 0.000000 0.000000 0.000000
-46.275928 83.310480 347.471011 -0.002672 -0.153737 -46.463708 -0.109609 0.107834 46.463808 -0.000000 0.000000 0.000000 -0.000000 0.000000 0.000000 0.000000 0.000000 0.000000 -0.000000 0.000000 0.000000 -0.894449 -0.054495 0.331631 -0.525529 -0.393240 -5.737011 2.516758 1.458281 6.874011 0.000000 0.000000 0.000000 0.000000 0.000000 0.000000 -0.702903 1.696689 0.152885 0.761148 -5.859041 -2.558923 -2.213358 3.405331 8.352622 1.706459 -0.797830 -7.497843 0.000000 0.000000 0.000000 0.000000 0.000000 0.000000 -0.109609 0.107834 46.463808 -0.000000 0.000000 0.000000 -0.000000 0.000000 0.000000 0.000000 0.000000 0.000000 0.708379 1.754535 46.601498 -1.961209 0.765779 -0.463633 -0.020578 2.279725 2.388820 0.000000 0.000000 0.000000
-46.626919 83.166193 346.766625 0.005452 -0.297069 -46.693777 -0.219917 0.199791 46.694175 -0.000000 0.000000 0.000000 -0.000000 0.000000 0.000000 0.000000 0.000000 0.000000 -0.000000 0.000000 0.000000 -1.559385 -0.129669 0.527727 -1.213663 -0.593919 -11.231666 4.534756 3.003857 13.209867 0.000000 0.000000 0.000000 0.000000 0.000000 0.000000 -1.255352 3.149718 0.302224 1.168525 -10.693876 -4.593885 -3.778191 6.014388 14.553049 2.827012 -1.239678 -12.509522 0.000000 0.000000 0.000000 0.000000 0.000000 0.000000 0.515021 -0.249469 46.861552 0.476468 -0.122512 0.099360 -0.383555 2.197767 -0.139546 0.000000 0.000000 0.000000 1.230624 3.212852 46.925120 -3.507075 1.450224 -0.847319 -0.521031 3.667299 4.303017 0.000000 0.000000 0.000000
-46.909464 83.046572 346.166809 0.024303 -0.430222 -46.903567 -0.330757 0.276193 46.904455 -0.000000 0.000000 0.000000 -0.000000 0.000000 0.000000 0.000000 0.000000 0.000000 -0.000000 0.000000 0.000000 -1.986161 -0.221461 0.585036 -1.922139 -0.612643 -16.037577 5.960775 4.360628 18.495641 0.000000 0.000000 0.000000 0.000000 0.000000 0.000000 -1.615274 4.280904 0.429829 1.272053 -14.464209 -6.152843 -4.835893 8.011818 18.957382 3.624586 -1.387856 -15.679044 0.000000 0.000000 0.000000 0.000000 0.000000 0.000000 0.708117 -0.364118 47.143579 0.651320 -0.141197 0.126982 -0.515202 2.925587 -0.224519 0.000000 0.000000 0.000000 1.566888 4.358263 47.195956 -4.626509 2.047101 -1.141344 -1.410233 4.231296 5.764975 0.000000 0.000000 0.000000
-47.123564 82.951616 345.671562 0.053830 -0.553402 -47.090982 -0.441987 0.337346 47.092543 -0.000000 0.000000 0.000000 -0.000000 0.000000 0.000000 0.000000 0.000000 0.000000 -0.842242 -0.146703 0.345491 -1.329486 -0.172511 0.161103 -2.527088 -0.499016 -19.747279 6.790512 5.245565 22.275549 0.000000 0.000000 0.000000 0.000000 0.000000 0.000000 -1.743218 5.016252 0.518013 1.099078 -17.153819 -7.268639 -5.478351 9.513306 21.838821 4.230655 -1.287406 -17.420469 0.000000 0.000000 0.000000 0.000000 0.000000 0.000000 0.859202 -0.473755 47.395822 0.782459 -0.128766 0.139763 -0.607138 3.408101 -0.318300 0.000000 0.000000 0.000000 1.718572 5.179415 47.421015 -5.313696 2.550888 -1.337959 -2.637628 4.030757 6.782964 0.000000 0.000000 0.000000
-47.269218 82.881326 345.280886 0.094008 -0.666792 -47.254202 -0.553491 0.383538 47.256601 -0.000000 0.000000 0.000000 -0.000000 0.000000 0.000000 0.000000 0.000000 0.000000 -0.961095 -0.131270 0.385140 -1.154230 -0.306684 -0.098307 -2.951927 -0.314865 -22.077004 7.070816 5.443261 24.230423 0.000000 0.000000 0.000000 0.000000 0.000000 0.000000 -1.606936 5.291776 0.553191 0.664551 -18.757492 -7.959907 -5.759345 10.594905 23.384388 4.704994 -0.962066 -17.985384 0.000000 0.000000 0.000000 0.000000 0.000000 0.000000 0.968792 -0.579478 47.616663 0.869075 -0.083540 0.137681 -0.659690 3.645745 -0.420309 0.000000 0.000000 0.000000 1.688081 5.669346 47.604609 -5.566633 2.957174 -1.431441 -4.188293 3.100750 7.349484 0.000000 0.000000 0.000000
